<mxfile host="app.diagrams.net" agent="Mozilla/5.0 (Windows NT 10.0; Win64; x64) AppleWebKit/537.36 (KHTML, like Gecko) Chrome/126.0.0.0 Safari/537.36" version="24.7.6">
  <diagram name="Page-1" id="GopV74KwdFOe6evjYSvl">
    <mxGraphModel dx="875" dy="464" grid="1" gridSize="10" guides="1" tooltips="1" connect="1" arrows="1" fold="1" page="1" pageScale="1" pageWidth="850" pageHeight="1100" math="0" shadow="0">
      <root>
        <mxCell id="0" />
        <mxCell id="1" parent="0" />
        <mxCell id="kA8CE8twdbF2utUiBK9--3" value="" style="edgeStyle=orthogonalEdgeStyle;rounded=0;orthogonalLoop=1;jettySize=auto;html=1;" edge="1" parent="1" source="kA8CE8twdbF2utUiBK9--1" target="kA8CE8twdbF2utUiBK9--2">
          <mxGeometry relative="1" as="geometry" />
        </mxCell>
        <mxCell id="kA8CE8twdbF2utUiBK9--1" value="Start" style="rounded=1;whiteSpace=wrap;html=1;fillColor=#d5e8d4;strokeColor=#82b366;" vertex="1" parent="1">
          <mxGeometry x="358.5" y="2" width="85" height="30" as="geometry" />
        </mxCell>
        <mxCell id="kA8CE8twdbF2utUiBK9--5" style="edgeStyle=orthogonalEdgeStyle;rounded=0;orthogonalLoop=1;jettySize=auto;html=1;entryX=0.5;entryY=0;entryDx=0;entryDy=0;" edge="1" parent="1" source="kA8CE8twdbF2utUiBK9--2" target="kA8CE8twdbF2utUiBK9--4">
          <mxGeometry relative="1" as="geometry" />
        </mxCell>
        <mxCell id="kA8CE8twdbF2utUiBK9--8" value="No" style="edgeLabel;html=1;align=center;verticalAlign=middle;resizable=0;points=[];" vertex="1" connectable="0" parent="kA8CE8twdbF2utUiBK9--5">
          <mxGeometry x="-0.3371" relative="1" as="geometry">
            <mxPoint as="offset" />
          </mxGeometry>
        </mxCell>
        <mxCell id="kA8CE8twdbF2utUiBK9--10" style="edgeStyle=orthogonalEdgeStyle;rounded=0;orthogonalLoop=1;jettySize=auto;html=1;entryX=0.621;entryY=-0.018;entryDx=0;entryDy=0;entryPerimeter=0;" edge="1" parent="1">
          <mxGeometry relative="1" as="geometry">
            <mxPoint x="509.4699999999999" y="182.00000000000003" as="targetPoint" />
            <mxPoint x="446" y="122.53999999999999" as="sourcePoint" />
          </mxGeometry>
        </mxCell>
        <mxCell id="kA8CE8twdbF2utUiBK9--12" value="Yes" style="edgeLabel;html=1;align=center;verticalAlign=middle;resizable=0;points=[];" vertex="1" connectable="0" parent="kA8CE8twdbF2utUiBK9--10">
          <mxGeometry x="-0.45" y="2" relative="1" as="geometry">
            <mxPoint as="offset" />
          </mxGeometry>
        </mxCell>
        <mxCell id="kA8CE8twdbF2utUiBK9--2" value="Height&amp;gt;120cm?" style="rhombus;whiteSpace=wrap;html=1;" vertex="1" parent="1">
          <mxGeometry x="346" y="82" width="110" height="80" as="geometry" />
        </mxCell>
        <mxCell id="kA8CE8twdbF2utUiBK9--4" value="Can&#39;t ride" style="rounded=1;whiteSpace=wrap;html=1;" vertex="1" parent="1">
          <mxGeometry x="246" y="162" width="70" height="30" as="geometry" />
        </mxCell>
        <mxCell id="kA8CE8twdbF2utUiBK9--14" value="" style="edgeStyle=orthogonalEdgeStyle;rounded=0;orthogonalLoop=1;jettySize=auto;html=1;" edge="1" parent="1" source="kA8CE8twdbF2utUiBK9--9" target="kA8CE8twdbF2utUiBK9--13">
          <mxGeometry relative="1" as="geometry" />
        </mxCell>
        <mxCell id="kA8CE8twdbF2utUiBK9--9" value="Can ride" style="rounded=1;whiteSpace=wrap;html=1;" vertex="1" parent="1">
          <mxGeometry x="476" y="162" width="70" height="30" as="geometry" />
        </mxCell>
        <mxCell id="kA8CE8twdbF2utUiBK9--17" style="edgeStyle=orthogonalEdgeStyle;rounded=0;orthogonalLoop=1;jettySize=auto;html=1;entryX=0.5;entryY=0;entryDx=0;entryDy=0;" edge="1" parent="1" source="kA8CE8twdbF2utUiBK9--13" target="kA8CE8twdbF2utUiBK9--16">
          <mxGeometry relative="1" as="geometry" />
        </mxCell>
        <mxCell id="kA8CE8twdbF2utUiBK9--20" value="Over 18" style="edgeLabel;html=1;align=center;verticalAlign=middle;resizable=0;points=[];" vertex="1" connectable="0" parent="kA8CE8twdbF2utUiBK9--17">
          <mxGeometry x="-0.3262" relative="1" as="geometry">
            <mxPoint as="offset" />
          </mxGeometry>
        </mxCell>
        <mxCell id="kA8CE8twdbF2utUiBK9--13" value="age" style="rhombus;whiteSpace=wrap;html=1;" vertex="1" parent="1">
          <mxGeometry x="471" y="240" width="80" height="60" as="geometry" />
        </mxCell>
        <mxCell id="kA8CE8twdbF2utUiBK9--16" value="$12" style="rounded=1;whiteSpace=wrap;html=1;" vertex="1" parent="1">
          <mxGeometry x="580" y="300" width="70" height="30" as="geometry" />
        </mxCell>
        <mxCell id="kA8CE8twdbF2utUiBK9--18" value="$7" style="rounded=1;whiteSpace=wrap;html=1;" vertex="1" parent="1">
          <mxGeometry x="346" y="300" width="70" height="30" as="geometry" />
        </mxCell>
        <mxCell id="kA8CE8twdbF2utUiBK9--19" style="edgeStyle=orthogonalEdgeStyle;rounded=0;orthogonalLoop=1;jettySize=auto;html=1;entryX=0.414;entryY=-0.011;entryDx=0;entryDy=0;entryPerimeter=0;" edge="1" parent="1" source="kA8CE8twdbF2utUiBK9--13" target="kA8CE8twdbF2utUiBK9--18">
          <mxGeometry relative="1" as="geometry" />
        </mxCell>
        <mxCell id="kA8CE8twdbF2utUiBK9--21" value="18 or under" style="edgeLabel;html=1;align=center;verticalAlign=middle;resizable=0;points=[];" vertex="1" connectable="0" parent="kA8CE8twdbF2utUiBK9--19">
          <mxGeometry x="-0.2857" y="-1" relative="1" as="geometry">
            <mxPoint as="offset" />
          </mxGeometry>
        </mxCell>
      </root>
    </mxGraphModel>
  </diagram>
</mxfile>
